<?xml version="1.0" encoding="UTF-8"?>
<svg version="1.1" xmlns="http://www.w3.org/2000/svg" width="500" height="500">
<path d="M0 0 C0.66 0 1.32 0 2 0 C3.87144245 8.46849072 4.93864122 16.96922861 6.00146484 25.56646729 C7.99198148 41.54020702 10.43881469 57.29071425 14 73 C14.29342285 74.34747314 14.29342285 74.34747314 14.59277344 75.72216797 C20.15402549 101.11793548 30.9292108 124.69929557 53.14453125 139.640625 C59.36601714 143.59757313 66.12960411 146.38195801 73 149 C73.82822266 149.32258789 74.65644531 149.64517578 75.50976562 149.97753906 C82.27888456 152.54086299 89.06834683 154.40950941 96.125 156 C97.25462158 156.2563623 98.38424316 156.51272461 99.5480957 156.77685547 C118.15024536 160.89859195 137.00343362 163.35917816 155.8972168 165.69384766 C157.78307495 165.9285376 157.78307495 165.9285376 159.70703125 166.16796875 C160.8256958 166.30485107 161.94436035 166.4417334 163.09692383 166.58276367 C165.46577469 166.92321999 167.69845405 167.35825303 170 168 C170 168.66 170 169.32 170 170 C163.22416432 171.20486828 156.43828466 172.23684017 149.61328125 173.11328125 C95.36883657 179.4196001 95.36883657 179.4196001 47 203 C45.91138672 203.81210937 45.91138672 203.81210937 44.80078125 204.640625 C30.48215457 216.23055465 22.16352753 234.72720696 17 252 C16.77103027 252.75490723 16.54206055 253.50981445 16.30615234 254.28759766 C12.18476175 268.26293346 9.83857057 282.42132794 7.75 296.8125 C7.62521271 297.67074371 7.50042542 298.52898743 7.37185669 299.41323853 C5.90705583 309.59049839 4.63362478 319.77140025 3.65887451 330.00801086 C3.34992443 333.16550898 3.00710523 335.9786843 2 339 C1.01 338.67 0.02 338.34 -1 338 C-1.06469482 337.39567139 -1.12938965 336.79134277 -1.19604492 336.16870117 C-6.09118032 273.86431564 -6.09118032 273.86431564 -31 218 C-31 217.34 -31 216.68 -31 216 C-31.66 216 -32.32 216 -33 216 C-34.515625 214.42578125 -34.515625 214.42578125 -36.25 212.3125 C-38.50075728 209.64650867 -40.70049545 207.28989909 -43.4375 205.125 C-44.283125 204.42375 -45.12875 203.7225 -46 203 C-46 202.34 -46 201.68 -46 201 C-46.7115625 200.73832031 -47.423125 200.47664062 -48.15625 200.20703125 C-51.14547379 198.93825357 -53.74071809 197.3968903 -56.5 195.6875 C-62.80476271 191.98870588 -69.07225956 189.30924681 -76 187 C-76.67450195 186.76958008 -77.34900391 186.53916016 -78.04394531 186.30175781 C-102.76236083 178.0180472 -129.39146205 175.20796436 -155.18676758 172.20458984 C-156.43611084 172.05844238 -157.6854541 171.91229492 -158.97265625 171.76171875 C-160.61633179 171.5754895 -160.61633179 171.5754895 -162.29321289 171.38549805 C-165 171 -165 171 -168 170 C-168 169.34 -168 168.68 -168 168 C-164.37535847 167.4351768 -160.75020882 166.87366968 -157.125 166.3125 C-155.97257812 166.13315918 -154.82015625 165.95381836 -153.6328125 165.76904297 C-146.96698843 164.7389825 -140.29877082 163.75318399 -133.6171875 162.83203125 C-86.66719009 156.37876237 -86.66719009 156.37876237 -45 135 C-43.76636719 134.08347656 -43.76636719 134.08347656 -42.5078125 133.1484375 C-24.69460575 118.66365 -16.88556283 95.3348218 -12 73.75 C-11.7436377 72.62158691 -11.48727539 71.49317383 -11.22314453 70.33056641 C-7.11618357 51.87889057 -4.53719584 33.26414043 -2.30615234 14.50927734 C-2.14969238 13.20168457 -1.99323242 11.8940918 -1.83203125 10.546875 C-1.69514893 9.37995117 -1.5582666 8.21302734 -1.41723633 7.01074219 C-1.08292273 4.59836346 -0.65885915 2.33957832 0 0 Z " fill="#00FE30" transform="translate(249,80)"/>
</svg>
